<?xml version="1.0" encoding="utf-8"?>
<svg viewBox="0 0 115.01 106.218" xmlns="http://www.w3.org/2000/svg">
  <path fill="currentColor" d="M 6.48 10.188 C 6.48 8.525 7.829 7.176 9.492 7.176 L 18.529 7.176 C 19.911 7.176 21.116 8.118 21.451 9.459 L 23.891 19.225 L 93.834 19.225 C 95.734 19.226 97.159 20.964 96.786 22.827 L 90.762 52.95 C 90.491 54.301 89.337 55.296 87.96 55.365 L 31.349 58.209 L 33.078 67.42 L 84.798 67.42 C 87.116 67.42 88.566 69.93 87.406 71.939 C 86.868 72.871 85.874 73.445 84.798 73.445 L 30.578 73.445 C 29.129 73.443 27.886 72.411 27.62 70.987 L 18.589 22.882 L 16.179 13.2 L 9.492 13.2 C 7.829 13.2 6.48 11.852 6.48 10.188 Z M 25.168 25.249 L 30.228 52.233 L 85.316 49.467 L 90.159 25.249 L 25.168 25.249 Z M 36.602 73.445 C 27.327 73.445 21.53 83.485 26.167 91.518 C 28.32 95.246 32.297 97.543 36.602 97.543 C 45.877 97.543 51.674 87.502 47.037 79.469 C 44.884 75.741 40.907 73.445 36.602 73.445 Z M 78.773 73.445 C 69.498 73.445 63.701 83.485 68.339 91.518 C 70.491 95.246 74.469 97.543 78.773 97.543 C 88.048 97.543 93.845 87.502 89.208 79.469 C 87.055 75.741 83.078 73.445 78.773 73.445 Z M 36.602 79.469 C 41.24 79.469 44.138 84.49 41.819 88.506 C 40.743 90.37 38.754 91.518 36.602 91.518 C 31.964 91.518 29.066 86.498 31.385 82.481 C 32.461 80.617 34.45 79.469 36.602 79.469 Z M 78.773 79.469 C 83.411 79.469 86.309 84.49 83.99 88.506 C 82.914 90.37 80.925 91.518 78.773 91.518 C 74.136 91.518 71.237 86.498 73.556 82.481 C 74.632 80.617 76.621 79.469 78.773 79.469 Z" style=""/>
</svg>