<svg xmlns="http://www.w3.org/2000/svg" viewBox="0 0 115 106">
  <path fill="grey" d="M6 10a3 3 0 0 1 3-3h10l2 2 3 10h70a3 3 0 0 1 3 4l-6 30a3 3 0 0 1-3 2l-57 3 2 9h52c2 0 4 3 2 5a3 3 0 0 1-2 1H31a3 3 0 0 1-3-2l-9-48-3-10H9a3 3 0 0 1-3-3Zm19 15 5 27 55-3 5-24H25Zm12 48c-10 0-15 10-11 19a12 12 0 0 0 11 6c9 0 15-10 10-19a12 12 0 0 0-10-6Zm42 0c-10 0-15 10-11 19a12 12 0 0 0 11 6c9 0 15-10 10-19a12 12 0 0 0-10-6Zm-42 6c4 0 7 5 5 10a6 6 0 0 1-5 3c-5 0-8-6-6-10a6 6 0 0 1 6-3Zm42 0c4 0 7 5 5 10a6 6 0 0 1-5 3c-5 0-8-6-5-10a6 6 0 0 1 5-3Z"/>
</svg>